<?xml version="1.0" standalone="no"?><!DOCTYPE svg PUBLIC "-//W3C//DTD SVG 1.1//EN" "http://www.w3.org/Graphics/SVG/1.1/DTD/svg11.dtd"><svg t="1777181039722" class="icon" viewBox="0 0 1024 1024" version="1.1" xmlns="http://www.w3.org/2000/svg" p-id="13058" xmlns:xlink="http://www.w3.org/1999/xlink" width="64" height="64"><path d="M974.5 374.5c-18.4-12.9-44.1-8.5-57.1 10l-33 47.1C846.6 232.8 671.8 81.9 462.2 81.9 225 81.9 32.1 274.9 32.1 512S225 942.1 462.2 942.1c99.4 0 196.4-34.7 273-97.8 17.5-14.4 20-40.2 5.6-57.7s-40.2-20-57.7-5.6c-62 51-140.5 79.1-221 79.1C270.2 860.2 114 704 114 512s156.2-348.2 348.2-348.2c172.9 0 316.3 126.7 343.2 292.1l-59.1-41.5c-18.4-12.9-44.1-8.5-57.1 10-12.9 18.4-8.5 44.1 10 57.1l134.1 94.2c18.4 12.9 44.1 8.5 57.1-10l94.2-134.1c12.9-18.5 8.4-44.1-10.1-57.1z" fill="#040000" p-id="13059"></path></svg>